<svg width="48" height="48" viewBox="0 0 48 48" fill="none" xmlns="http://www.w3.org/2000/svg">
<path d="M35.4018 19.3992C35.7661 19.022 35.9677 18.5168 35.9631 17.9924C35.9586 17.468 35.7483 16.9664 35.3774 16.5956C35.0066 16.2247 34.505 16.0144 33.9806 16.0098C33.4562 16.0053 32.951 16.2069 32.5738 16.5712L21.9738 27.1712L15.3738 20.5712C14.9966 20.2069 14.4914 20.0053 13.967 20.0098C13.4426 20.0144 12.941 20.2247 12.5702 20.5956C12.1993 20.9664 11.989 21.468 11.9845 21.9924C11.9799 22.5168 12.1815 23.022 12.5458 23.3992L20.5458 31.3992C20.9209 31.7741 21.4295 31.9848 21.9598 31.9848C22.4901 31.9848 22.9987 31.7741 23.3738 31.3992L35.3738 19.3992H35.4018Z" fill="#1E347A"/>
<path fill-rule="evenodd" clip-rule="evenodd" d="M48 24C48 37.24 37.24 48 24 48C10.76 48 0 37.24 0 24C0 10.76 10.76 0 24 0C37.24 0 48 10.76 48 24ZM44 24C44 35.04 35.04 44 24 44C12.96 44 4 35.04 4 24C4 12.96 12.96 4 24 4C35.04 4 44 12.96 44 24Z" fill="#1E347A"/>
</svg>
